# xmcd
#
# Track frame offsets:
#	150
#	13413
#	25191
#	37610
#	50715
#	62211
#	73768
#	85343
#	96882
#	107994
#	120652
#	128130
#	140972
#	153748
#	164255
#	178719
#	191571
#	204366
#	214808
#	227950
#	239227
#	252208
#	264100
#	276693
#	287170
#
# Disc length: 3988
#
# Revision: 1
# Processed by: cddbd v1.5.1PL0 Copyright (c) Steve Scherf et al.
# Submitted via: EasyCDDAExtractor 4.6.0.1
# Normalized: r0:TDELIM( - )
#
DISCID=890f9219
DTITLE=Various Artist - M-G-M Doo-Wops #3
DYEAR=1900
DGENRE=Blues
TTITLE0=Twilighters - Half Angel
TTITLE1=Blenders - Isn't It A Shame
TTITLE2=Billy Williams Quartet - I'll Never Fail You
TTITLE3=Gladys Patrick - Love Is A Wailing Thing
TTITLE4=Blenders - I Don't Miss You Anymore
TTITLE5=Billy Williams Quartet - What You Don't Know Of Love
TTITLE6=Gladys Patrick - Somebody Please
TTITLE7=Billy Williams Quartet - Shanghai
TTITLE8=Twilighters - Lovely Lady (Linda Lou)
TTITLE9=Billy Williams Quartet - You Made Me Love You
TTITLE10=Crystals - Better Come Back To Me
TTITLE11=Solitaires - Fool That I Am
TTITLE12=Billy Williams Quartet - It's No Sin
TTITLE13=Solitaires - Fair Weather Lover
TTITLE14=Billy Williams Quartet - It's Over
TTITLE15=Twilighters - Little Did I Dream
TTITLE16=Blenders - Please Take Me Back
TTITLE17=Billy Williams Quartet - Pretty Eyed Baby
TTITLE18=Gladys Patrick - The Blues
TTITLE19=Crystals - That's Where I Belong
TTITLE20=Billy Williams Quartet - The Gaucho Serenade
TTITLE21=Blenders - If That's The Way You Want It Baby
TTITLE22=Gladys Patrick - Unchain My Heart
TTITLE23=Billy Williams Quartet - The Wondrous World
TTITLE24=Twilighters - Gotta Get On The Train
EXTD=
EXTT0=
EXTT1=
EXTT2=
EXTT3=
EXTT4=
EXTT5=
EXTT6=
EXTT7=
EXTT8=
EXTT9=
EXTT10=
EXTT11=
EXTT12=
EXTT13=
EXTT14=
EXTT15=
EXTT16=
EXTT17=
EXTT18=
EXTT19=
EXTT20=
EXTT21=
EXTT22=
EXTT23=
EXTT24=
PLAYORDER=
